<?xml version="1.0" encoding="UTF-8"?><svg id="Layer_2" xmlns="http://www.w3.org/2000/svg" viewBox="0 0 128.2 44.03"><defs><style>.cls-1{letter-spacing:-.02em;}.cls-2,.cls-3{fill:#19083c;}.cls-4{fill:#3da2db;}.cls-3{font-family:Montserrat-Regular, Montserrat;font-size:6.59px;}.cls-5{letter-spacing:-.02em;}.cls-6{letter-spacing:-.05em;}.cls-7{letter-spacing:-.03em;}.cls-8{letter-spacing:-.02em;}.cls-9{letter-spacing:-.03em;}.cls-10{letter-spacing:-.02em;}.cls-11{letter-spacing:-.04em;}.cls-12{letter-spacing:0em;}</style></defs><g id="Layer_1-2"><g><g><text class="cls-3" transform="translate(0 42.3)"><tspan class="cls-6" x="0" y="0">C</tspan><tspan class="cls-10" x="4.42" y="0">on</tspan><tspan class="cls-5" x="12.68" y="0">n</tspan><tspan class="cls-10" x="16.98" y="0">e</tspan><tspan class="cls-8" x="20.8" y="0">c</tspan><tspan class="cls-11" x="24.38" y="0">t</tspan><tspan class="cls-10" x="26.76" y="0">er les </tspan><tspan class="cls-1" x="44.65" y="0">a</tspan><tspan class="cls-8" x="48.39" y="0">c</tspan><tspan class="cls-11" x="51.97" y="0">t</tspan><tspan class="cls-10" x="54.35" y="0">eu</tspan><tspan class="cls-9" x="62.43" y="0">r</tspan><tspan class="cls-7" x="64.88" y="0">s aux oppo</tspan><tspan class="cls-12" x="98.93" y="0">r</tspan><tspan class="cls-7" x="101.51" y="0">tuni</tspan><tspan class="cls-11" x="114.18" y="0">t</tspan><tspan class="cls-10" x="116.57" y="0">és</tspan></text><path class="cls-2" d="M95.91,24.08c-.2-.32-.4-.63-.66-.94h0c-.67-.93-1.06-1.49-1.72-2.02l-1.58,4.88-2.94-9.1h-4.34l5.12,15.07h4.34l2.36-6.9c-.19-.33-.38-.66-.58-.98Z"/><path class="cls-4" d="M30.54,21.86h-4.53c-.1-.16-.22-.31-.35-.45-.7-.78-1.6-1.18-2.69-1.18s-1.99,.39-2.69,1.18c-.13,.14-.24,.29-.35,.45h-4.53c.37-1.1,.99-2.09,1.87-2.96,1.51-1.5,3.41-2.25,5.7-2.25s4.19,.75,5.7,2.25c.88,.87,1.5,1.86,1.87,2.96Z"/><path class="cls-4" d="M48.55,21.86h-4.64c-.1-.16-.22-.31-.34-.45-.71-.82-1.56-1.23-2.55-1.23s-1.82,.41-2.51,1.22c-.12,.15-.24,.3-.34,.47h-4.83V11.19h4.2v7.39c1.16-1.29,2.65-1.93,4.48-1.93s3.43,.71,4.79,2.14c.83,.87,1.41,1.9,1.73,3.07Z"/><path class="cls-4" d="M128.2,1.13c-.55,.45-1.08,.87-1.6,1.31-1.57,1.31-3.02,2.75-4.43,4.22-1.43,1.49-2.79,3.04-4.08,4.66-.98,1.22-1.95,2.44-2.91,3.68-.85,1.11-1.71,2.22-2.5,3.37-1.14,1.66-2.23,3.35-3.32,5.04-.59,.93-1.15,1.89-1.68,2.85-.55,1-1.06,2.02-1.57,3.04-.16,.31-.37,.54-.65,.73-1.26,.88-2.52,1.76-3.77,2.66-.25,.18-.47,.38-.74,.6-.06-.11-.13-.19-.16-.27h0c-.65-2.02-1.51-3.95-2.36-5.89-.29-.66-.6-1.32-.93-1.96v-.02c-.32-.59-.65-1.17-1-1.74-.2-.32-.4-.63-.66-.94h0c-.76-1.06-1.16-1.65-2.03-2.24,.35-1.08,.84-1.66,1.6-2.12,.66-.39,1.38-.58,2.13-.71,.59-.1,1.14,.19,1.6,.55,.64,.5,1.1,1.15,1.53,1.82,.8,1.24,1.42,2.58,2,3.94,.12,.28,.26,.55,.42,.89,.12-.16,.21-.26,.28-.37,.61-.96,1.2-1.94,1.85-2.88,.75-1.09,1.53-2.15,2.32-3.21,1.06-1.43,2.2-2.81,3.39-4.13,.81-.9,1.62-1.78,2.45-2.66,.8-.85,1.61-1.69,2.45-2.5,.98-.94,2-1.85,3.02-2.74,1.86-1.64,3.82-3.15,5.89-4.52,.79-.52,1.61-1,2.42-1.5,.06-.04,.14-.06,.23-.09,.27,.38,.54,.75,.81,1.13Z"/><path class="cls-2" d="M74.76,16.69c-1.83,0-3.43,.71-4.79,2.14-1.36,1.43-2.04,3.26-2.04,5.5s.7,4.12,2.1,5.63c1.4,1.51,2.99,2.27,4.77,2.27s3.26-.74,4.44-2.21v1.99h4.2v-15.1h-4.2v1.72c-1.16-1.29-2.65-1.93-4.48-1.93Zm4.54,7.8c0,1.22-.34,2.22-1.02,3-.68,.77-1.51,1.16-2.48,1.16s-1.82-.39-2.55-1.16c-.73-.77-1.09-1.77-1.09-2.98s.35-2.23,1.06-3.05c.71-.82,1.56-1.23,2.55-1.23s1.82,.41,2.51,1.22c.68,.81,1.02,1.83,1.02,3.05Z"/></g><path class="cls-2" d="M65.21,14.15c-1.37-1.17-3.56-1.75-6.57-1.75h-6.92v10.33h-5.03s-2.06,.01-2.06,1.85h0c-.02,1.16-.38,2.12-1.09,2.87-.73,.77-1.58,1.16-2.55,1.16s-1.8-.39-2.48-1.16c-.68-.77-1.02-1.77-1.02-3,0-.03,0-.05,0-.08h0c-.17-1.6-2.02-1.64-2.02-1.64h-6.75s-1.86,.05-2.02,1.67c0,.01,0,.03,0,.04,0,1.23-.35,2.24-1.05,3.01-.7,.77-1.6,1.16-2.69,1.16s-1.99-.39-2.69-1.16c-.67-.74-1.01-1.68-1.05-2.83,0-.03,0-.06,0-.09-.07-1.75-2.03-1.8-2.03-1.8h-4.61V12.4H2.41v3.75h5.8v9.18c0,.95-.22,1.67-.66,2.14-.44,.48-.97,.71-1.58,.71-1.29,0-2.52-.63-3.7-1.9L0,29.42c1.75,1.81,3.81,2.72,6.16,2.72,1.89,0,3.43-.58,4.63-1.74,.96-.92,1.54-2.22,1.73-3.89h2.74c.34,1.3,1.01,2.45,2.01,3.44,1.51,1.49,3.41,2.24,5.7,2.24s4.19-.75,5.7-2.24c1.01-.99,1.68-2.14,2.01-3.44h2.66v5.46h4.2v-1.99c1.18,1.47,2.66,2.21,4.44,2.21s3.37-.76,4.77-2.27c.91-.98,1.52-2.12,1.84-3.42h3.11v5.46h4.37v-15.82h2.49c1.44,0,2.5,.24,3.18,.71,.68,.48,1.02,1.28,1.02,2.41s-.26,1.99-.78,2.58c-.52,.59-1.51,.88-2.97,.88h-2.08v3.78h1.74c2.89,0,5.05-.56,6.46-1.68,1.41-1.12,2.11-2.89,2.11-5.31s-.69-4.21-2.06-5.38Z"/></g></g></svg>